<?xml version="1.0" encoding="utf-8"?>
<!-- Generator: Adobe Illustrator 27.5.0, SVG Export Plug-In . SVG Version: 6.00 Build 0)  -->
<svg version="1.1" xmlns="http://www.w3.org/2000/svg" xmlns:xlink="http://www.w3.org/1999/xlink" x="0px" y="0px"
	 viewBox="0 0 1511.22 1274.481" style="enable-background:new 0 0 1511.22 1274.481;" xml:space="preserve">
<g id="BG">
	<rect x="2.003" y="0.001" style="fill:#FFFFFF;" width="1509.217" height="1274.48"/>
</g>
<g id="elements">
	<g>
		<path style="opacity:0.3;fill:#00EDFF;" d="M344.304,132.206c209.104-104.911,442.899,7.446,663.424,38.367
			c66.986,9.392,134.383,21.356,199.863,44.436c36.748,12.953,77.907,28.169,108.755,61.608
			c28.643,31.048,25.047,56.624,17.257,99.767c-5.788,32.054,6.322,42.526,24.897,58.235c27.5,23.256,58.057,43.548,78.016,80.969
			c17.407,32.638,18.117,67.523,17.992,106.9c-0.112,35.551,3.625,64.019,17.436,94.005c8.854,19.224,28.278,41.5,11.536,60.325
			c-10.724,12.058-35.485,9.366-47.965,10.114c-33.375,2.002-66.88,0.391-100.258-0.587c-82.154-2.406-164.364-4.467-246.333,5.676
			c-84.51,10.457-167.833,34.382-252.124,47.539c-125.496,19.589-252.175,17.504-377.791,1.144
			c-123.21-16.047-253.233-38.612-369.919-101.331c-35.293-18.97-100.039-61.938-44.854-110.533
			c36.39-32.045,90.799-41.365,119.241-90.094c24.58-42.112-3.537-88.309-22.026-122.796c-18.364-34.255-50.6-85.257-18.383-122.672
			c32.64-37.907,85.641-42.13,124.772-57.312c24.921-9.669,50.757-20.383,67.04-51.083c8.532-16.087,11.568-39.795,24.721-47.69
			C340.469,136.671,342.927,132.896,344.304,132.206z"/>
		<path style="fill:#FFFFFF;" d="M319.84,406.468H3.352v46.239H319.84c8.834,0,15.996-10.351,15.996-23.12
			C335.836,416.819,328.674,406.468,319.84,406.468z"/>
		<path style="fill:#FFFFFF;" d="M1512.878,387.429h-383.823c-8.834,0-15.997,10.351-15.997,23.12
			c0,12.769,7.162,23.12,15.997,23.12h383.823V387.429z"/>
		<path style="fill:#FFFFFF;" d="M1512.878,634.945h-182.461c-8.834,0-15.996,10.351-15.996,23.119
			c0,12.769,7.162,23.12,15.996,23.12h182.461V634.945z"/>
		<path style="fill:#FFFFFF;" d="M454.396,149.432c0,12.769-7.162,23.12-15.996,23.12H46.965c-8.834,0-15.996-10.351-15.996-23.12
			l0,0c0-12.768,7.162-23.12,15.996-23.12h391.435C447.233,126.312,454.396,136.664,454.396,149.432L454.396,149.432z"/>
		<path style="fill:#FFFFFF;" d="M264.794,447.269H3.352v46.24h261.441c8.834,0,15.996-10.351,15.996-23.12
			C280.79,457.621,273.628,447.269,264.794,447.269z"/>
		<path style="fill:#FFFFFF;" d="M1512.878,420.755h-221.323c-8.834,0-15.996,10.351-15.996,23.12
			c0,12.769,7.162,23.12,15.996,23.12h221.323V420.755z"/>
		<path style="fill:#FFFFFF;" d="M1512.878,596.158h-129.601c-8.833,0-15.995,10.351-15.995,23.12
			c0,12.769,7.162,23.12,15.995,23.12h129.601V596.158z"/>
		<path style="fill:#FFFFFF;" d="M500.451,195.048c0,12.768-7.161,23.12-15.996,23.12H93.021c-8.835,0-15.996-10.352-15.996-23.12
			l0,0c0-12.769,7.161-23.12,15.996-23.12h391.434C493.29,171.929,500.451,182.279,500.451,195.048L500.451,195.048z"/>
		<path style="fill:#FFFFFF;" d="M336.271,722.611H3.352v46.239h332.918c8.834,0,15.996-10.351,15.996-23.119
			C352.267,732.961,345.104,722.611,336.271,722.611z"/>
		<path style="fill:#FFFFFF;" d="M285.96,679.78H3.352v46.239H285.96c8.835,0,15.996-10.351,15.996-23.12
			C301.956,690.131,294.795,679.78,285.96,679.78z"/>
		<path style="opacity:0.5;fill:#00C3FF;" d="M1319.307,265.227h-24.382v-24.383c0-6.098-4.942-11.041-11.042-11.041
			c-6.099,0-11.042,4.943-11.042,11.041v24.383h-24.381c-6.099,0-11.042,4.943-11.042,11.041c0,6.098,4.942,11.04,11.042,11.04
			h24.381v24.383c0,6.098,4.943,11.041,11.042,11.041c6.099,0,11.042-4.943,11.042-11.041v-24.383h24.382
			c6.098,0,11.042-4.943,11.042-11.04C1330.348,270.169,1325.405,265.227,1319.307,265.227z"/>
		<path style="opacity:0.5;fill:#00C3FF;" d="M206.383,580.687l-11.876,11.876l-11.877-11.878c-2.97-2.969-7.786-2.97-10.757,0
			c-2.97,2.971-2.97,7.788,0,10.757l11.877,11.877l-11.876,11.876c-2.971,2.972-2.971,7.787-0.001,10.757
			c2.971,2.97,7.786,2.97,10.757-0.001l11.877-11.876l11.877,11.877c2.971,2.97,7.786,2.971,10.757,0
			c2.971-2.971,2.97-7.787,0.001-10.757l-11.877-11.878l11.876-11.876c2.97-2.971,2.97-7.786,0-10.757
			C214.169,577.716,209.355,577.716,206.383,580.687z"/>
		<path style="opacity:0.5;fill:#00C3FF;" d="M1318.828,850.455l-13.779-4.909l4.908-13.781c1.229-3.448-0.571-7.237-4.017-8.464
			c-3.448-1.228-7.236,0.571-8.464,4.018l-4.908,13.779l-13.781-4.908c-3.448-1.228-7.236,0.57-8.464,4.018
			c-1.228,3.447,0.571,7.235,4.019,8.464l13.779,4.908l-4.908,13.782c-1.229,3.447,0.569,7.236,4.017,8.464
			c3.446,1.228,7.235-0.571,8.464-4.019l4.909-13.78l13.781,4.909c3.448,1.228,7.236-0.571,8.464-4.017
			C1324.074,855.471,1322.276,851.683,1318.828,850.455z"/>
		<path style="opacity:0.5;fill:#00C3FF;" d="M262.653,332.557c-18.787,0-34.072-15.285-34.072-34.073
			c0-18.788,15.285-34.073,34.072-34.073c18.788,0,34.073,15.285,34.073,34.073C296.726,317.272,281.441,332.557,262.653,332.557z
			 M262.653,280.637c-9.84,0-17.847,8.006-17.847,17.847c0,9.841,8.006,17.847,17.847,17.847c9.841,0,17.847-8.006,17.847-17.847
			C280.5,288.644,272.494,280.637,262.653,280.637z"/>
		<path style="opacity:0.5;fill:#00C3FF;" d="M1155.847,429.903c-12.809,0-23.231-10.422-23.231-23.231
			c0-12.81,10.422-23.231,23.231-23.231c12.81,0,23.231,10.421,23.231,23.231C1179.078,419.481,1168.656,429.903,1155.847,429.903z
			 M1155.847,394.504c-6.709,0-12.168,5.458-12.168,12.168c0,6.71,5.459,12.168,12.168,12.168c6.709,0,12.168-5.458,12.168-12.168
			C1168.015,399.962,1162.556,394.504,1155.847,394.504z"/>
		<path style="opacity:0.5;fill:#00C3FF;" d="M133.323,857.824c-12.809,0-23.231-10.421-23.231-23.231
			c0-12.81,10.422-23.232,23.231-23.232c12.809,0,23.231,10.422,23.231,23.232C156.554,847.403,146.132,857.824,133.323,857.824z
			 M133.323,822.426c-6.709,0-12.168,5.459-12.168,12.168c0,6.71,5.459,12.168,12.168,12.168c6.71,0,12.168-5.458,12.168-12.168
			C145.491,827.885,140.033,822.426,133.323,822.426z"/>
		<path style="opacity:0.5;fill:#00C3FF;" d="M1237.499,604.292c-6.832,0-12.391-5.559-12.391-12.39
			c0-6.831,5.559-12.39,12.391-12.39c6.831,0,12.391,5.559,12.391,12.39C1249.89,598.733,1244.33,604.292,1237.499,604.292z
			 M1237.499,585.412c-3.579,0-6.49,2.912-6.49,6.49c0,3.579,2.911,6.49,6.49,6.49c3.578,0,6.489-2.911,6.489-6.49
			C1243.988,588.323,1241.077,585.412,1237.499,585.412z"/>
		<path style="opacity:0.5;fill:#00C3FF;" d="M147.457,427.168c-6.831,0-12.391-5.558-12.391-12.39
			c0-6.831,5.559-12.39,12.391-12.39c6.832,0,12.391,5.559,12.391,12.39C159.848,421.61,154.289,427.168,147.457,427.168z
			 M147.457,408.289c-3.579,0-6.489,2.912-6.489,6.49c0,3.579,2.911,6.49,6.489,6.49s6.49-2.911,6.49-6.49
			C153.947,411.2,151.036,408.289,147.457,408.289z"/>
	</g>
</g>
<g id="text">
	<g>
		<path style="fill:#00C3FF;" d="M370.092,1028.52c0,6.957-5.797,12.175-13.334,12.175c-7.536,0-13.334-5.218-13.334-12.175v-15.846
			h-42.515c-8.117,0-13.721-6.184-13.721-13.141c0-0.773,0.773-4.252,1.933-6.764l37.104-85.611
			c1.933-4.638,6.958-7.536,11.982-7.536c6.57,0,13.335,5.797,13.335,12.561c0,1.159,0,2.512-0.773,4.251
			c-11.208,25.896-20.292,46.187-31.501,72.083h24.157V958.95c0-6.958,5.798-12.175,13.334-12.175
			c7.15,0,13.334,5.217,13.334,12.175v29.567h2.512c7.343,0,12.948,5.604,12.948,11.981c0,6.764-5.604,12.175-12.948,12.175h-2.512
			V1028.52z"/>
		<path style="fill:#00C3FF;" d="M483.53,945.423v53.144c0,23.577-15.847,42.321-44.641,42.321
			c-28.795,0-44.642-18.745-44.642-42.321v-53.144c0-25.509,13.528-45.994,44.642-45.994
			C470.002,899.429,483.53,919.914,483.53,945.423z M421.11,944.07v54.497c0,11.016,6.184,18.552,17.779,18.552
			c11.595,0,17.779-7.536,17.779-18.552V944.07c0-12.368-5.024-21.064-17.779-21.064C426.135,923.006,421.11,931.702,421.11,944.07z
			"/>
		<path style="fill:#00C3FF;" d="M578.803,1028.52c0,6.957-5.797,12.175-13.334,12.175c-7.537,0-13.334-5.218-13.334-12.175v-15.846
			h-42.515c-8.117,0-13.721-6.184-13.721-13.141c0-0.773,0.772-4.252,1.932-6.764l37.104-85.611
			c1.932-4.638,6.957-7.536,11.981-7.536c6.571,0,13.334,5.797,13.334,12.561c0,1.159,0,2.512-0.773,4.251
			c-11.208,25.896-20.292,46.187-31.5,72.083h24.157V958.95c0-6.958,5.797-12.175,13.334-12.175c7.15,0,13.334,5.217,13.334,12.175
			v29.567h2.512c7.343,0,12.948,5.604,12.948,11.981c0,6.764-5.604,12.175-12.948,12.175h-2.512V1028.52z"/>
		<path style="fill:#00C3FF;" d="M734.754,1039.149h-51.211c-9.47,0-17.973-3.285-17.973-13.721v-108.8
			c0-6.763,6.378-13.721,14.881-13.721h52.37c7.344,0,13.528,5.797,13.528,12.561c0,6.957-6.184,11.982-13.528,11.982h-40.196
			v31.114h36.525c6.763,0,13.334,5.217,13.334,12.174c0,6.957-5.798,12.368-13.334,12.368h-36.525v31.5h42.128
			c7.151,0,13.527,5.411,13.527,11.982C748.281,1033.545,742.098,1039.149,734.754,1039.149z"/>
		<path style="fill:#00C3FF;" d="M834.278,980.981l26.476,39.809c6.377,9.663-3.092,19.905-11.789,19.905
			c-4.831,0-8.89-2.126-11.401-5.992l-32.466-50.824h-13.141v44.255c0,6.763-6.378,12.754-13.721,12.754
			c-7.15,0-13.334-5.797-13.334-12.754V916.822c0-7.538,6.764-13.915,14.688-13.915h33.625c36.33,0,47.926,20.677,47.926,40.97
			C861.14,963.009,850.898,975.57,834.278,980.981z M812.441,927.451h-20.484v32.079h21.644c13.334,0,20.484-5.604,20.484-15.652
			C834.084,935.76,830.027,927.451,812.441,927.451z"/>
		<path style="fill:#00C3FF;" d="M951.195,980.981l26.476,39.809c6.377,9.663-3.092,19.905-11.789,19.905
			c-4.831,0-8.889-2.126-11.401-5.992l-32.466-50.824h-13.141v44.255c0,6.763-6.378,12.754-13.722,12.754
			c-7.149,0-13.333-5.797-13.333-12.754V916.822c0-7.538,6.763-13.915,14.687-13.915h33.624c36.331,0,47.926,20.677,47.926,40.97
			C978.057,963.009,967.815,975.57,951.195,980.981z M929.357,927.451h-20.483v32.079h21.644c13.334,0,20.484-5.604,20.484-15.652
			C951.002,935.76,946.944,927.451,929.357,927.451z"/>
		<path style="fill:#00C3FF;" d="M996.224,990.064V951.8c0-27.441,14.108-50.632,50.245-50.632c36.139,0,50.246,23.19,50.246,50.632
			v38.264c0,28.214-16.813,50.825-50.246,50.825C1013.038,1040.888,996.224,1018.278,996.224,990.064z M1023.279,951.8v38.264
			c0,15.46,7.345,26.282,23.19,26.282c15.847,0,23.19-10.822,23.19-26.282V951.8c0-15.653-6.184-26.089-23.19-26.089
			C1029.463,925.711,1023.279,936.147,1023.279,951.8z"/>
		<path style="fill:#00C3FF;" d="M1186.961,980.981l26.476,39.809c6.376,9.663-3.093,19.905-11.789,19.905
			c-4.831,0-8.89-2.126-11.402-5.992l-32.466-50.824h-13.141v44.255c0,6.763-6.377,12.754-13.721,12.754
			c-7.15,0-13.334-5.797-13.334-12.754V916.822c0-7.538,6.764-13.915,14.687-13.915h33.626c36.331,0,47.926,20.677,47.926,40.97
			C1213.824,963.009,1203.581,975.57,1186.961,980.981z M1165.125,927.451h-20.485v32.079h21.645
			c13.334,0,20.485-5.604,20.485-15.652C1186.769,935.76,1182.71,927.451,1165.125,927.451z"/>
	</g>
	<g>
		<path style="fill:#00C3FF;" d="M501.275,1103.986v14.562c0,1.405-1.349,2.681-2.997,2.681c-1.573,0-2.996-1.212-2.996-2.681
			v-39.917c0-1.66,1.647-3.064,3.596-3.064h11.011c12.434,0,16.853,6.833,16.853,14.305c0,9.07-6.592,14.115-16.853,14.115H501.275z
			 M501.275,1099.004h8.614c7.116,0,10.861-2.938,10.861-9.197c0-4.597-2.022-9.26-10.861-9.26h-8.614V1099.004z"/>
		<path style="fill:#00C3FF;" d="M533.561,1119.313c-0.45,1.149-1.798,1.915-2.847,1.915c-1.723,0-3.146-1.021-3.146-2.554
			c0-0.256,0.074-0.767,0.149-0.958l14.606-39.405c0.675-1.916,1.723-3.385,3.896-3.385c2.247,0,3.221,1.406,3.969,3.385
			l14.607,39.405c0.075,0.191,0.149,0.702,0.149,0.958c0,1.533-1.348,2.554-3.146,2.554c-1.124,0-2.547-0.766-2.922-1.915
			l-3.221-8.877h-18.951L533.561,1119.313z M538.505,1105.455h15.431l-7.715-21.65L538.505,1105.455z"/>
		<path style="fill:#00C3FF;" d="M575.285,1104.879c0,7.154,2.771,11.625,11.236,11.625c3.596,0,6.218-0.895,8.464-2.364v-13.73
			h-7.267c-1.497,0-2.845-1.086-2.845-2.428c0-1.34,1.348-2.425,2.845-2.425h8.915c2.397,0,4.27,0.893,4.27,2.937v15.264
			c0,5.173-8.09,7.407-14.757,7.407c-11.535,0-16.854-6.449-16.854-16.286v-13.667c0-9.835,5.319-16.285,16.854-16.285
			c6.816,0,13.258,2.49,13.258,5.493c0,1.213-1.124,2.235-2.697,2.235c-1.048,0-1.498-0.447-2.696-1.086
			c-2.247-1.342-4.569-1.979-7.491-1.979c-8.464,0-11.236,4.47-11.236,11.622V1104.879z"/>
		<path style="fill:#00C3FF;" d="M634.911,1120.591H615.06c-2.472,0-4.719-0.704-4.719-3.002v-39.022
			c0-1.469,1.498-3.001,3.521-3.001h20.299c1.649,0,2.997,1.15,2.997,2.555s-1.348,2.426-2.997,2.426h-17.827v14.945h16.405
			c1.498,0,2.921,1.085,2.921,2.489c0,1.405-1.273,2.491-2.921,2.491h-16.405v15.136h18.577c1.573,0,2.996,1.086,2.996,2.363
			C637.907,1119.44,636.559,1120.591,634.911,1120.591z"/>
		<path style="fill:#00C3FF;" d="M695.887,1119.76l-21.573-34.041v32.892c0,1.405-1.423,2.617-3.071,2.617
			c-1.648,0-2.921-1.212-2.921-2.617v-40.874c0-1.597,1.348-2.81,3.221-2.81c1.273,0,2.546,0.575,3.146,1.534l21.573,33.976v-32.892
			c0-1.405,1.423-2.618,3.071-2.618c1.649,0,2.922,1.213,2.922,2.618v40.874c0,1.534-1.348,2.81-3.296,2.81
			C697.759,1121.229,696.485,1120.654,695.887,1119.76z"/>
		<path style="fill:#00C3FF;" d="M710.494,1104.879v-13.667c0-8.876,4.869-16.285,17.229-16.285
			c12.359,0,17.229,7.409,17.229,16.285v13.667c0,9.069-5.768,16.35-17.229,16.35
			C716.262,1121.229,710.494,1113.948,710.494,1104.879z M716.487,1091.212v13.667c0,6.706,3.519,11.369,11.235,11.369
			c7.715,0,11.237-4.663,11.237-11.369v-13.667c0-6.77-2.997-11.304-11.237-11.304
			C719.483,1079.908,716.487,1084.442,716.487,1091.212z"/>
		<path style="fill:#00C3FF;" d="M761.958,1080.547H751.77c-1.723,0-2.996-1.149-2.996-2.491c0-1.086,1.348-2.49,2.996-2.49h26.368
			c1.572,0,3.071,1.086,3.071,2.49c0,1.342-1.424,2.491-3.071,2.491H767.95v38.128c0,1.341-1.348,2.554-2.997,2.554
			c-1.647,0-2.996-1.212-2.996-2.554V1080.547z"/>
		<path style="fill:#00C3FF;" d="M817.015,1118.675c0,1.341-1.349,2.554-2.997,2.554c-1.647,0-2.996-1.212-2.996-2.554v-40.108
			c0-1.469,1.497-3.001,3.52-3.001h20.3c1.647,0,2.996,1.15,2.996,2.555s-1.349,2.426-2.996,2.426h-17.828v14.945h16.404
			c1.498,0,2.922,1.085,2.922,2.489c0,1.405-1.274,2.491-2.922,2.491h-16.404V1118.675z"/>
		<path style="fill:#00C3FF;" d="M843.682,1104.879v-13.667c0-8.876,4.868-16.285,17.227-16.285
			c12.361,0,17.229,7.409,17.229,16.285v13.667c0,9.069-5.767,16.35-17.229,16.35
			C849.449,1121.229,843.682,1113.948,843.682,1104.879z M849.674,1091.212v13.667c0,6.706,3.52,11.369,11.235,11.369
			c7.717,0,11.237-4.663,11.237-11.369v-13.667c0-6.77-2.997-11.304-11.237-11.304
			C852.67,1079.908,849.674,1084.442,849.674,1091.212z"/>
		<path style="fill:#00C3FF;" d="M903.009,1121.229c-10.638,0-16.556-6.513-16.556-15.328v-28.292c0-1.533,1.348-2.682,3.071-2.682
			c1.575,0,2.922,1.213,2.922,2.682v28.292c0,6.132,3.371,10.347,10.562,10.347c7.19,0,10.486-4.342,10.486-10.347v-28.292
			c0-1.405,1.274-2.682,2.922-2.682c1.797,0,3.146,1.277,3.146,2.682v28.292C919.563,1114.779,913.42,1121.229,903.009,1121.229z"/>
		<path style="fill:#00C3FF;" d="M957.466,1119.76l-21.573-34.041v32.892c0,1.405-1.424,2.617-3.071,2.617
			c-1.648,0-2.921-1.212-2.921-2.617v-40.874c0-1.597,1.348-2.81,3.22-2.81c1.274,0,2.547,0.575,3.147,1.534l21.572,33.976v-32.892
			c0-1.405,1.423-2.618,3.071-2.618s2.92,1.213,2.92,2.618v40.874c0,1.534-1.348,2.81-3.295,2.81
			C959.339,1121.229,958.065,1120.654,957.466,1119.76z"/>
		<path style="fill:#00C3FF;" d="M986.906,1120.591h-8.464c-1.947,0-3.595-1.405-3.595-3.065v-38.958
			c0-1.66,1.647-3.065,3.595-3.065h8.464c15.281,0,20.524,7.729,20.524,16.285v11.943
			C1007.43,1112.479,1002.261,1120.591,986.906,1120.591z M1001.438,1091.787c0-6.323-3.521-11.304-13.259-11.304h-7.34v35.125h7.34
			c9.889,0,13.259-5.301,13.259-11.878V1091.787z"/>
	</g>
	<g>
		<path style="fill:#00C3FF;" d="M975.487,1203H525.995c-8.408,0-14.495-7.289-14.495-15.239v-17.551
			c0-7.948,6.087-15.209,14.495-15.209h449.492c8.407,0,16.013,7.262,16.013,15.209v17.551
			C991.5,1195.711,983.894,1203,975.487,1203z M526.148,1158.312c-6.216,0-11.648,6.026-11.648,11.898v17.551
			c0,5.875,4.714,12.239,10.93,12.239h449.683c6.214,0,13.388-6.365,13.388-12.239v-17.551c0-5.872-6.877-11.77-13.092-11.77
			L526.148,1158.312z"/>
		<g>
			<path style="fill:#00C3FF;" d="M658.616,1169.045c1.071-0.214,2.765-0.372,4.485-0.372c2.457,0,4.035,0.4,5.223,1.307
				c0.988,0.692,1.582,1.761,1.582,3.177c0,1.732-1.216,3.255-3.218,3.948v0.052c1.806,0.428,3.922,1.841,3.922,4.511
				c0,1.548-0.648,2.72-1.609,3.601c-1.326,1.147-3.47,1.68-6.577,1.68c-1.693,0-2.991-0.106-3.808-0.214V1169.045z
				 M661.07,1176.412h2.23c2.596,0,4.119-1.281,4.119-3.017c0-2.108-1.691-2.934-4.178-2.934c-1.126,0-1.776,0.079-2.171,0.159
				V1176.412z M661.07,1185.031c0.48,0.078,1.186,0.104,2.061,0.104c2.54,0,4.881-0.88,4.881-3.494c0-2.453-2.228-3.469-4.91-3.469
				h-2.031V1185.031z"/>
			<path style="fill:#00C3FF;" d="M676.989,1181.132l-1.979,5.658h-2.54l6.465-17.986h2.963l6.489,17.986h-2.623l-2.03-5.658
				H676.989z M683.224,1179.32l-1.861-5.18c-0.424-1.174-0.706-2.24-0.988-3.281h-0.058c-0.281,1.068-0.591,2.164-0.956,3.256
				l-1.866,5.205H683.224z"/>
			<path style="fill:#00C3FF;" d="M704.055,1186.202c-0.903,0.427-2.709,0.854-5.025,0.854c-5.363,0-9.398-3.203-9.398-9.098
				c0-5.63,4.035-9.447,9.936-9.447c2.369,0,3.866,0.48,4.516,0.801l-0.594,1.894c-0.931-0.422-2.256-0.745-3.837-0.745
				c-4.462,0-7.424,2.696-7.424,7.417c0,4.401,2.683,7.231,7.312,7.231c1.493,0,3.019-0.295,4.006-0.748L704.055,1186.202z"/>
			<path style="fill:#00C3FF;" d="M707.133,1168.804h2.452v8.674h0.086c0.506-0.694,1.014-1.336,1.496-1.92l5.813-6.754h3.051
				l-6.889,7.633l7.423,10.354h-2.908l-6.265-8.833l-1.807,1.975v6.858h-2.452V1168.804z"/>
			<path style="fill:#00C3FF;" d="M736.848,1170.783h-5.785v-1.979h14.087v1.979h-5.816v16.007h-2.486V1170.783z"/>
			<path style="fill:#00C3FF;" d="M762.76,1177.61c0,6.19-3.979,9.472-8.833,9.472c-5.025,0-8.553-3.681-8.553-9.124
				c0-5.709,3.751-9.447,8.835-9.447C759.401,1168.511,762.76,1172.273,762.76,1177.61z M747.998,1177.907
				c0,3.839,2.203,7.282,6.067,7.282c3.896,0,6.099-3.388,6.099-7.472c0-3.577-1.977-7.313-6.07-7.313
				C750.029,1170.404,747.998,1173.955,747.998,1177.907z"/>
			<path style="fill:#00C3FF;" d="M774.389,1168.804v7.528h9.199v-7.528h2.484v17.986h-2.484v-8.432h-9.199v8.432h-2.454v-17.986
				H774.389z"/>
			<path style="fill:#00C3FF;" d="M806.59,1177.61c0,6.19-3.977,9.472-8.833,9.472c-5.022,0-8.554-3.681-8.554-9.124
				c0-5.709,3.757-9.447,8.837-9.447C803.232,1168.511,806.59,1172.273,806.59,1177.61z M791.831,1177.907
				c0,3.839,2.199,7.282,6.064,7.282c3.899,0,6.096-3.388,6.096-7.472c0-3.577-1.974-7.313-6.066-7.313
				C793.86,1170.404,791.831,1173.955,791.831,1177.907z"/>
			<path style="fill:#00C3FF;" d="M825.81,1178.89c-0.142-2.506-0.31-5.523-0.282-7.763h-0.082
				c-0.647,2.109-1.439,4.348-2.399,6.831l-3.358,8.725h-1.862l-3.079-8.566c-0.902-2.535-1.665-4.856-2.202-6.99h-0.054
				c-0.057,2.24-0.199,5.256-0.368,7.953l-0.508,7.71h-2.344l1.328-17.986h3.128l3.248,8.699c0.793,2.215,1.44,4.192,1.92,6.061
				h0.084c0.481-1.817,1.156-3.791,2.005-6.061l3.386-8.699h3.133l1.185,17.986h-2.399L825.81,1178.89z"/>
			<path style="fill:#00C3FF;" d="M842.322,1178.358h-7.398v6.486h8.246v1.946h-10.699v-17.986h10.277v1.949h-7.824v5.684h7.398
				V1178.358z"/>
		</g>
	</g>
</g>
<g id="icon_1_">
	<g>
		<g>
			<path style="opacity:0.7;fill:#00C3FF;" d="M1057.298,250.558H676.97V211.63c0-11.32-9.176-20.496-20.496-20.496h-211.06
				c-11.32,0-20.496,9.176-20.496,20.496v59.4c0,0.008,0,0.016,0,0.024v513.523c0,11.319,9.176,20.496,20.496,20.496h611.885
				c11.319,0,20.496-9.177,20.496-20.496V271.054C1077.794,259.734,1068.618,250.558,1057.298,250.558z"/>
			<path style="fill:#00C3FF;" d="M1057.298,808.896H445.414c-13.41,0-24.319-10.909-24.319-24.319V271.054c0-0.015,0-0.033,0-0.051
				V211.63c0-13.41,10.91-24.32,24.32-24.32h211.06c13.41,0,24.32,10.91,24.32,24.32v35.104h376.504
				c13.41,0,24.32,10.91,24.32,24.32v513.523C1081.618,797.987,1070.708,808.896,1057.298,808.896z M428.741,271.082v513.495
				c0,9.193,7.479,16.673,16.672,16.673h611.885c9.193,0,16.673-7.479,16.673-16.673V271.054c0-9.193-7.479-16.673-16.673-16.673
				H676.97c-2.112,0-3.823-1.712-3.823-3.823V211.63c0-9.193-7.479-16.673-16.673-16.673h-211.06
				c-9.193,0-16.673,7.479-16.673,16.673v59.4C428.741,271.046,428.741,271.064,428.741,271.082z"/>
		</g>
		<g>
			<path style="fill:#FFFFFF;" d="M424.918,303.427v481.15c0,11.319,9.176,20.496,20.496,20.496h611.885
				c11.319,0,20.496-9.177,20.496-20.496v-481.15H424.918z"/>
			<path style="fill:#00C3FF;" d="M1057.298,808.896H445.414c-13.41,0-24.319-10.909-24.319-24.319V299.604h660.524v484.973
				C1081.618,797.987,1070.708,808.896,1057.298,808.896z M428.741,307.251v477.326c0,9.193,7.479,16.673,16.672,16.673h611.885
				c9.193,0,16.673-7.479,16.673-16.673V307.251H428.741z"/>
		</g>
		<g>
			<path style="opacity:0.4;fill:#00C3FF;" d="M810.347,567.213l105.941,23.376l-5.059,49.213l-12.319,22.556l-26.654,13.944
				c0,0-24.299,0-25.274,0c-0.976,0-22.457-12.304-22.457-12.304l-11.326-22.556l-2.852-25.017V567.213z"/>
			<path style="fill:#00C3FF;" d="M620.613,487.943c-1.624,1.625-4.256,1.625-5.882,0l-55.477-55.478
				c-1.624-1.623-1.624-4.256,0-5.881l0,0c1.624-1.625,4.257-1.625,5.882,0l55.478,55.477
				C622.238,483.686,622.238,486.319,620.613,487.943L620.613,487.943z"/>
			<path style="fill:#00C3FF;" d="M559.254,487.943c-1.624-1.624-1.624-4.258,0-5.881l55.477-55.477
				c1.626-1.625,4.258-1.625,5.882,0l0,0c1.625,1.625,1.625,4.258,0,5.881l-55.478,55.478
				C563.511,489.567,560.878,489.568,559.254,487.943L559.254,487.943z"/>
			<path style="fill:#00C3FF;" d="M930.351,487.943c-1.625,1.625-4.258,1.625-5.881,0l-55.48-55.478
				c-1.622-1.623-1.622-4.256,0-5.881l0,0c1.625-1.625,4.259-1.625,5.883,0l55.478,55.477
				C931.976,483.686,931.976,486.319,930.351,487.943L930.351,487.943z"/>
			<path style="fill:#00C3FF;" d="M868.989,487.943c-1.622-1.624-1.622-4.258,0-5.881l55.48-55.477c1.623-1.625,4.255-1.625,5.881,0
				l0,0c1.627,1.625,1.625,4.258,0,5.881l-55.478,55.478C873.248,489.567,870.614,489.568,868.989,487.943L868.989,487.943z"/>
			<g>
				<path style="fill:#00C3FF;" d="M945.708,605.555c-0.539,0.001-1.083-0.098-1.613-0.307c-121.26-48.011-254.824-48.012-376.086,0
					c-2.252,0.891-4.794-0.212-5.685-2.46c-0.891-2.25,0.212-4.794,2.46-5.684c61.149-24.212,125.501-36.486,191.268-36.486
					c65.768,0,130.12,12.274,191.268,36.486c2.25,0.89,3.352,3.434,2.461,5.684C949.097,604.507,947.449,605.555,945.708,605.555z"
					/>
				<path style="fill:#00C3FF;" d="M860.713,682.44c-30.838,0-55.93-25.088-55.93-55.929v-57.482c0-2.419,1.962-4.379,4.381-4.379
					c2.42,0,4.381,1.959,4.381,4.379v57.482c0,26.01,21.16,47.171,47.168,47.171c26.013,0,47.171-21.161,47.171-47.171V590.47
					c0-2.417,1.962-4.379,4.379-4.379c2.42,0,4.381,1.962,4.381,4.379v36.041C916.646,657.351,891.555,682.44,860.713,682.44z"/>
				<path style="fill:#00C3FF;" d="M860.713,643.511c-2.418,0-4.378-1.961-4.378-4.379v-62.287c0-2.419,1.96-4.379,4.378-4.379
					c2.419,0,4.382,1.96,4.382,4.379v62.287C865.095,641.55,863.132,643.511,860.713,643.511z"/>
			</g>
		</g>
		<path style="fill:#FFFFFF;" d="M483.568,277.841c-19.3,0-35.003-15.703-35.003-35.003c0-19.3,15.703-35.002,35.003-35.002
			c19.301,0,35.003,15.702,35.003,35.002C518.571,262.138,502.869,277.841,483.568,277.841z M483.568,217.482
			c-13.98,0-25.355,11.374-25.355,25.355c0,13.981,11.375,25.355,25.355,25.355c13.981,0,25.355-11.375,25.355-25.355
			C508.924,228.856,497.549,217.482,483.568,217.482z"/>
		<path style="fill:#FFFFFF;" d="M491.435,227.617l-8.277,8.277l-8.278-8.277c-2.07-2.069-5.426-2.07-7.497,0
			c-2.07,2.07-2.07,5.427,0,7.497l8.277,8.278l-8.277,8.276c-2.07,2.072-2.07,5.428,0,7.497c2.07,2.07,5.426,2.07,7.497,0
			l8.277-8.277l8.278,8.278c2.07,2.069,5.426,2.069,7.497-0.001c2.07-2.07,2.07-5.426,0-7.497l-8.278-8.277l8.277-8.276
			c2.07-2.071,2.07-5.427,0-7.497C496.862,225.547,493.506,225.547,491.435,227.617z"/>
	</g>
</g>
</svg>
